<?xml version="1.0" encoding="UTF-8" standalone="no"?> <svg id="Layer_1" data-name="Layer 1" xmlns="http://www.w3.org/2000/svg" viewBox="0 0 110 110"><polygon points="60.62 47.17 57.44 52.85 61.11 56.52 60.64 47.65 60.65 47.64 60.62 47.17"/><path d="M24,67.75v4H50.88V61l-3.53-6.3-2.44,2.42L43.3,58.7l0,0a1.94,1.94,0,0,1-.29.21l-.13.07a1.21,1.21,0,0,1-.32.11l-.15,0-.18,0h-.1l-.16,0a1.4,1.4,0,0,1-.35-.1h0a1.33,1.33,0,0,1-.34-.22,1.54,1.54,0,0,1-.6-1.31l.46-8.8A19.18,19.18,0,0,0,24,67.75Z"/><path d="M62.23,59a1.66,1.66,0,0,1-.42.12h-.23l-.27,0h0A1.28,1.28,0,0,1,60.9,59l-.09,0a2,2,0,0,1-.35-.25l-4-4L52.88,61V71.8H79.74v-4a19.18,19.18,0,0,0-17-19.06l.37,7,.1,1.77a1.59,1.59,0,0,1-.53,1.27A1.91,1.91,0,0,1,62.23,59ZM56.65,68.5a1,1,0,0,1-2,0V67.2a1,1,0,0,1,2,0Zm0-5.62a1,1,0,0,1-2,0v-1.3a1,1,0,0,1,2,0Z"/><path d="M43.16,56l3.17-3.16-.94-1.68-2.24-4,0,.46v0l-.47,8.86Z"/><path d="M51.32,8a15.84,15.84,0,0,0-10.84,4.43c-3.65,3.44-7.16,8.78-4.74,15.41,0,.06,0,.11.07.17.15.4.32.81.52,1.22l0,0,.06,0a4.77,4.77,0,0,1,.73-.42l.15-.07a4.92,4.92,0,0,1,.82-.27h0V25.92a1,1,0,0,1,1-1H49.48a5.36,5.36,0,0,0,4.1-2l.06-.08,2-2.47a.9.9,0,0,1,.82-.38,1,1,0,0,1,.79.43h0c.11.15.23.29.35.43,1.75,1.89,5.63,2.6,7.07,2.71a1,1,0,0,1,.34.1h0a1,1,0,0,1,.56.9v3.87h0l.09,0a5.34,5.34,0,0,1,.8.26l.27.14a2.71,2.71,0,0,1,.34.18c.1-.22.18-.45.26-.67l.09-.27c.08-.26.15-.53.21-.8,0-.11.06-.21.08-.32.06-.29.1-.59.14-.88l0-.24a11.07,11.07,0,0,0,.06-1.15V22.56h0V20.8a4.51,4.51,0,0,0-3.64-4.44,1,1,0,0,1-.75-.66,12.33,12.33,0,0,0-7.95-7A14.18,14.18,0,0,0,51.32,8Z"/><path d="M55.32,52.54h0l1.23-2.21.84-1.48-.1,0L57,49l-.56.2-.19.07-.17.06-.3.1-.58.15-.69.16c-.2,0-.41.06-.61.09s-.46.08-.7.1-.47,0-.71,0l-.61,0a13.52,13.52,0,0,1-5.44-1.13l5.48,9.78Z"/><path d="M34.41,32.49a6,6,0,0,1,.14-.66l.09-.29c0-.13.1-.25.16-.37a1.89,1.89,0,0,1,.11-.25l0,0-.12-.22H18.21V71.8H22v-4A21.17,21.17,0,0,1,41.17,46.69L41.26,45a1.92,1.92,0,0,1-.13-.17,9.15,9.15,0,0,1-.59-.8c-.09-.12-.17-.25-.25-.38s-.27-.44-.4-.66-.17-.32-.25-.48-.2-.41-.3-.62l-.23-.53-.21-.61c-.07-.2-.14-.38-.19-.58s-.11-.41-.16-.62c-.09-.38-.16-.76-.22-1.14,0-.19-.07-.37-.09-.56h0c-.15,0-.28-.08-.43-.12l-.42-.13-.4-.2-.38-.2c-.13-.08-.24-.17-.36-.26l-.33-.27-.31-.31c-.09-.11-.19-.22-.27-.34s-.17-.23-.25-.35-.15-.26-.22-.4l-.18-.38a3.64,3.64,0,0,1-.14-.47c0-.13-.08-.25-.11-.38a5.35,5.35,0,0,1-.07-.7c0-.07,0-.13,0-.2s0-.07,0-.1A5.07,5.07,0,0,1,34.41,32.49Z"/><path d="M61.49,85.83h25a6.2,6.2,0,0,0,6.19-6.2V36.47H87.56V72.8a1,1,0,0,1-1,1H17.21a1,1,0,0,1-1-1V29.66a1,1,0,0,1,1-1H33.92c-.11-.27-.19-.55-.28-.82s-.11-.37-.16-.55c-.1-.35-.18-.69-.25-1,0-.09,0-.17,0-.25a14.55,14.55,0,0,1-.26-2.44H17.32a6.2,6.2,0,0,0-6.19,6.19V79.63a6.2,6.2,0,0,0,6.19,6.2h25l.05,0H61.43Zm-9.6-2.44a3.61,3.61,0,1,1,3.61-3.61A3.61,3.61,0,0,1,51.89,83.39Z"/><path d="M51.89,78.17a1.61,1.61,0,1,0,1.61,1.61A1.61,1.61,0,0,0,51.89,78.17Z"/><rect x="43.34" y="87.83" width="17.08" height="8.99"/><path d="M36.91,34.82a2.69,2.69,0,0,0,.27.32l0,0,.31.25,0,0,.32.2.06,0,.22.1v-5.2l-.1,0a2.34,2.34,0,0,0-.44.24c-.07.05-.14.08-.2.13a2.9,2.9,0,0,0-.52.53,2.83,2.83,0,0,0,0,3.31Z"/><path d="M63.54,29.35V25.48c-.38-.06-.87-.15-1.41-.26l-.1,0-.09,0a14.67,14.67,0,0,1-3.76-1.36,8.16,8.16,0,0,1-1.77-1.24l-1.27,1.61s0,0,0,.05A7.2,7.2,0,0,1,52.8,26.1a7.12,7.12,0,0,1-3.32.82H40.16v9.39h0a11.73,11.73,0,0,0,1.78,6.22,11.85,11.85,0,0,0,1.47,1.87l.17.18c.15.15.31.29.47.43a2.73,2.73,0,0,0,.25.23c.21.18.44.35.66.51s.13.11.2.15a7.39,7.39,0,0,0,.66.42l.24.15c.22.13.45.25.68.36h0L47,47l.67.28.35.12c.21.08.42.14.64.2a3.59,3.59,0,0,0,.47.12,5.23,5.23,0,0,0,.54.12c.24,0,.49.08.74.11l.31,0a10.18,10.18,0,0,0,1.11.06A11.12,11.12,0,0,0,53,48l.21,0a8.68,8.68,0,0,0,.89-.14l.35-.08q.38-.08.72-.18l.38-.13c.23-.07.45-.15.67-.24l.36-.15.65-.32.33-.17.64-.39.29-.19.61-.46.27-.21a11.68,11.68,0,0,0,4.17-8.93Z"/><path d="M69.25,34.06a3,3,0,0,1-.08.32,4.68,4.68,0,0,1-.17.53c0,.12-.11.24-.16.35a3.62,3.62,0,0,1-.24.43l-.23.33-.29.36-.29.29-.35.29a2.62,2.62,0,0,1-.34.24,3.23,3.23,0,0,1-.41.22l-.37.19c-.16.06-.32.1-.49.15s-.24.08-.36.1h0c0,.3-.09.59-.14.88l-.06.37a12.73,12.73,0,0,1-.33,1.25c0,.15-.1.29-.15.43s-.18.53-.29.79-.16.34-.24.52-.2.43-.31.63a5.79,5.79,0,0,1-.31.54c-.11.19-.22.38-.34.56s-.24.35-.36.52-.25.34-.38.5l0,.06.09,1.78A21.17,21.17,0,0,1,81.74,67.75v4h3.82V36.47H81.22L77.3,40.39a1,1,0,0,1-.3.2l-.09,0a.74.74,0,0,1-.25.05h-.1a1.36,1.36,0,0,1-.35-.07,1,1,0,0,1-.62-.93V36.47H73.25a1,1,0,0,1-1-1V30.66h-3.6a.08.08,0,0,0,0,0l0,.09c0,.06,0,.11.08.16l.13.26c0,.06,0,.13.08.2a1.46,1.46,0,0,0,.07.19c0,.08.06.15.08.23s0,.23.07.35,0,.13,0,.19a.36.36,0,0,0,0,.11,5,5,0,0,1,0,.67h0v0A4.24,4.24,0,0,1,69.25,34.06Z"/><path d="M69,102a4.16,4.16,0,0,0-4-3.18H38.85a4.19,4.19,0,0,0-4,3.18Z"/><path d="M66.12,35.46l.08-.06a2.65,2.65,0,0,0,.26-.21s.05,0,.07-.07a2.62,2.62,0,0,0,.22-.25l.06-.07q.09-.13.18-.3a.43.43,0,0,0,0-.07,1.92,1.92,0,0,0,.14-.33l0-.07c0-.12.07-.25.1-.38a.43.43,0,0,0,0,0,3.14,3.14,0,0,0,0-.45,2.8,2.8,0,0,0-.45-1.5,3.43,3.43,0,0,0-.24-.33h0a.6.6,0,0,0-.08-.08,2.57,2.57,0,0,0-.39-.35L66,30.76l-.36-.18-.08,0v5.21a1.89,1.89,0,0,0,.21-.09l.09,0A2.61,2.61,0,0,0,66.12,35.46Z"/><path d="M98.87,17.3H74.25V34.47h2.34a1,1,0,0,1,1,1v1.8l2.51-2.5a1,1,0,0,1,.7-.3H98.87ZM85.61,29.81H78.06a1,1,0,0,1,0-2h7.55a1,1,0,0,1,0,2Zm9.46-5.52h-17a1,1,0,0,1,0-2h17a1,1,0,0,1,0,2Z"/><path d="M69.56,27.8c0,.18-.09.36-.14.53s0,.22-.08.33h2.91v-5.1H69.93v1.18c0,.05,0,.1,0,.16a10.39,10.39,0,0,1-.09,1.37,4,4,0,0,1-.07.48C69.71,27.1,69.64,27.46,69.56,27.8Z"/></svg>